<svg id="Layer_3" data-name="Layer 3" xmlns="http://www.w3.org/2000/svg" viewBox="0 0 738.84 738.84"><defs><style>.cls-1{fill:#ef4444;}</style></defs><path class="cls-1" d="M142.58,512C142.58,308,308,142.58,512,142.58S881.42,308,881.42,512,716.05,881.42,512,881.42,142.58,716.05,142.58,512Zm252.53-69.12,68,67.82-68,69.12c-13.42,13.57-13.42,35.5,0,47.77,13.57,14.72,35.5,14.72,47.77,0l67.82-66.67,69.12,66.67c13.57,14.72,35.5,14.72,47.77,0,14.72-12.27,14.72-34.2,0-47.77L560.92,510.7l66.67-67.82c14.72-12.27,14.72-34.2,0-47.77-12.27-13.42-34.2-13.42-47.77,0l-69.12,68-67.82-68c-12.27-13.42-34.2-13.42-47.77,0s-13.42,35.5,0,47.77Z" transform="translate(-142.58 -142.58)"/></svg>