<svg id="Layer_4" data-name="Layer 4" xmlns="http://www.w3.org/2000/svg" viewBox="0 0 735.72 735.72"><defs><style>.cls-1{fill:#3b82f6;}</style></defs><path class="cls-1" d="M512,144.14c-203.19,0-367.86,164.67-367.86,367.86S308.81,879.86,512,879.86,879.86,715.19,879.86,512,715.19,144.14,512,144.14Zm0,183.93a46,46,0,1,1-46,46A46,46,0,0,1,512,328.07Zm57.48,367.86h-115a34.49,34.49,0,1,1,0-69h23V535H466a34.49,34.49,0,1,1,0-69h46a34.49,34.49,0,0,1,34.49,34.48V627h23a34.49,34.49,0,1,1,0,69Z" transform="translate(-144.14 -144.14)"/></svg>